<svg xmlns="http://www.w3.org/2000/svg" id="f70d1d67-2307-47c9-95aa-2ba80c7f80c2" width="895.597" height="639.824" data-name="Layer 1" viewBox="0 0 895.597 639.824"><title>Working</title><rect width="207.972" height="302.01" x="250.162" y="150.832" fill="#3f3d56" rx="13.435" transform="translate(-210.09179 -44.46974) rotate(-12.75221)"/><circle cx="87.597" cy="87" r="6" fill="#fff"/><circle cx="93.597" cy="109" r="6" fill="#fff"/><circle cx="132.597" cy="270" r="6" fill="#fff"/><circle cx="138.597" cy="292" r="6" fill="#fff"/><rect width="124.876" height="20.813" x="287.349" y="259.698" fill="#f5f5f5" transform="translate(-203.1948 -46.21522) rotate(-12.75221)"/><rect width="207.972" height="302.01" x="397.948" y="256.362" fill="#6c63ff" transform="translate(-229.7408 -9.24511) rotate(-12.75221)"/><rect width="207.972" height="302.01" x="611.855" y="207.952" fill="#3f3d56" transform="translate(-213.77859 36.77746) rotate(-12.75221)"/><rect width="124.876" height="20.813" x="411.349" y="292.698" fill="#f5f5f5" transform="translate(-207.42045 -18.03009) rotate(-12.75221)"/><rect width="166.502" height="5.203" x="399.915" y="341.947" fill="#f5f5f5" transform="translate(-216.33734 -14.93741) rotate(-12.75221)"/><rect width="166.502" height="5.203" x="402.595" y="353.788" fill="#f5f5f5" transform="translate(-218.88502 -14.05378) rotate(-12.75221)"/><rect width="166.502" height="5.203" x="405.275" y="365.629" fill="#f5f5f5" transform="translate(-221.4327 -13.17016) rotate(-12.75221)"/><rect width="79.782" height="5.203" x="409.025" y="387.042" fill="#f5f5f5" transform="translate(-227.13618 -21.3854) rotate(-12.75221)"/><rect width="91.923" height="5.203" x="411.555" y="397.543" fill="#f5f5f5" transform="translate(-229.24205 -19.22793) rotate(-12.75221)"/><rect width="166.502" height="5.203" x="413.315" y="401.153" fill="#f5f5f5" transform="translate(-229.07574 -10.51929) rotate(-12.75221)"/><rect width="166.502" height="5.203" x="415.995" y="412.994" fill="#f5f5f5" transform="translate(-231.62342 -9.63567) rotate(-12.75221)"/><rect width="154.361" height="5.203" x="418.824" y="426.176" fill="#f5f5f5" transform="translate(-234.61292 -10.02588) rotate(-12.75221)"/><rect width="166.502" height="5.203" x="421.355" y="436.677" fill="#f5f5f5" transform="translate(-236.71878 -7.86842) rotate(-12.75221)"/><rect width="86.72" height="5.203" x="425.018" y="457.324" fill="#f5f5f5" transform="translate(-242.1698 -15.35575) rotate(-12.75221)"/><rect width="91.923" height="5.203" x="647.926" y="420.513" fill="#6c63ff" opacity=".3" transform="translate(-228.48193 33.51412) rotate(-12.75221)"/><rect width="166.502" height="5.203" x="649.686" y="424.123" fill="#6c63ff" opacity=".3" transform="translate(-228.31563 42.22276) rotate(-12.75221)"/><rect width="166.502" height="5.203" x="652.366" y="435.964" fill="#6c63ff" opacity=".3" transform="translate(-230.86331 43.10638) rotate(-12.75221)"/><rect width="154.361" height="5.203" x="655.196" y="449.146" fill="#6c63ff" opacity=".3" transform="translate(-233.8528 42.71617) rotate(-12.75221)"/><rect width="166.502" height="5.203" x="657.726" y="459.647" fill="#6c63ff" opacity=".3" transform="translate(-235.95867 44.87363) rotate(-12.75221)"/><rect width="100.595" height="69.376" x="497.422" y="461.518" fill="#f5f5f5" transform="translate(-248.22113 3.0525) rotate(-12.75221)"/><rect width="100.595" height="69.376" x="613.555" y="236.07" fill="#6c63ff" opacity=".3" transform="translate(-195.59243 23.12624) rotate(-12.75221)"/><rect width="100.595" height="69.376" x="709.585" y="306.806" fill="#6c63ff" opacity=".3" transform="translate(-208.83762 46.06825) rotate(-12.75221)"/><g opacity=".5"><rect width="3" height="17" x="185.597" y="510.286" fill="#47e6b1"/><rect width="3" height="17" x="337.799" y="640.374" fill="#47e6b1" transform="translate(835.97153 179.48768) rotate(90)"/></g><g opacity=".5"><rect width="3" height="17" x="512.597" fill="#47e6b1"/><rect width="3" height="17" x="664.799" y="130.088" fill="#47e6b1" transform="translate(652.68517 -657.79868) rotate(90)"/></g><g opacity=".5"><rect width="3" height="17" x="885.597" y="125" fill="#47e6b1"/><rect width="3" height="17" x="1037.799" y="255.088" fill="#47e6b1" transform="translate(1150.68517 -905.79868) rotate(90)"/></g><path fill="#4d8af0" d="M512.491,638.67962a3.67461,3.67461,0,0,1-2.04749-4.441,1.766,1.766,0,0,0,.07991-.40754h0a1.84258,1.84258,0,0,0-3.31045-1.22119h0a1.76564,1.76564,0,0,0-.2039.3618,3.6746,3.6746,0,0,1-4.441,2.04748,1.76645,1.76645,0,0,0-.40754-.0799h0a1.84257,1.84257,0,0,0-1.22119,3.31045h0a1.76637,1.76637,0,0,0,.3618.2039,3.67459,3.67459,0,0,1,2.04749,4.441,1.766,1.766,0,0,0-.0799.40754h0a1.84257,1.84257,0,0,0,3.31044,1.22119h0a1.76584,1.76584,0,0,0,.2039-.3618,3.67459,3.67459,0,0,1,4.441-2.04748,1.766,1.766,0,0,0,.40754.0799h0a1.84257,1.84257,0,0,0,1.22119-3.31045h0A1.7661,1.7661,0,0,0,512.491,638.67962Z" opacity=".5" transform="translate(-152.20132 -130.08781)"/><path fill="#4d8af0" d="M658.68918,763.33049a3.6746,3.6746,0,0,1-2.04749-4.441,1.76592,1.76592,0,0,0,.0799-.40754h0a1.84257,1.84257,0,0,0-3.31044-1.22119h0a1.76637,1.76637,0,0,0-.2039.3618,3.67459,3.67459,0,0,1-4.441,2.04749,1.766,1.766,0,0,0-.40754-.0799h0a1.84257,1.84257,0,0,0-1.22119,3.31044h0a1.7661,1.7661,0,0,0,.3618.2039,3.67461,3.67461,0,0,1,2.04749,4.441,1.766,1.766,0,0,0-.07991.40754h0a1.84258,1.84258,0,0,0,3.31045,1.22119h0a1.76564,1.76564,0,0,0,.2039-.3618,3.67462,3.67462,0,0,1,4.441-2.04749,1.76594,1.76594,0,0,0,.40754.07991h0a1.84257,1.84257,0,0,0,1.22119-3.31045h0A1.7659,1.7659,0,0,0,658.68918,763.33049Z" opacity=".5" transform="translate(-152.20132 -130.08781)"/><path fill="#4d8af0" d="M164.491,341.39326a3.67462,3.67462,0,0,1-2.04749-4.441,1.76594,1.76594,0,0,0,.07991-.40754h0a1.84257,1.84257,0,0,0-3.31045-1.22119h0a1.7659,1.7659,0,0,0-.2039.3618,3.6746,3.6746,0,0,1-4.441,2.04749,1.76646,1.76646,0,0,0-.40754-.07991h0a1.84257,1.84257,0,0,0-1.22119,3.31045h0a1.76684,1.76684,0,0,0,.3618.2039,3.67458,3.67458,0,0,1,2.04749,4.441,1.76592,1.76592,0,0,0-.0799.40754h0a1.84257,1.84257,0,0,0,3.31044,1.22119h0a1.76637,1.76637,0,0,0,.2039-.3618,3.67459,3.67459,0,0,1,4.441-2.04749,1.766,1.766,0,0,0,.40754.07991h0a1.84258,1.84258,0,0,0,1.22119-3.31045h0A1.76606,1.76606,0,0,0,164.491,341.39326Z" opacity=".5" transform="translate(-152.20132 -130.08781)"/><path fill="#4d8af0" d="M1029.68918,493.33049a3.6746,3.6746,0,0,1-2.04749-4.441,1.76592,1.76592,0,0,0,.0799-.40754h0a1.84257,1.84257,0,0,0-3.31044-1.22119h0a1.76637,1.76637,0,0,0-.2039.3618,3.67459,3.67459,0,0,1-4.441,2.04749,1.766,1.766,0,0,0-.40754-.0799h0a1.84257,1.84257,0,0,0-1.22119,3.31044h0a1.7661,1.7661,0,0,0,.3618.2039,3.67461,3.67461,0,0,1,2.04749,4.441,1.766,1.766,0,0,0-.07991.40754h0a1.84258,1.84258,0,0,0,3.31045,1.22119h0a1.76564,1.76564,0,0,0,.2039-.3618,3.67462,3.67462,0,0,1,4.441-2.04749,1.76594,1.76594,0,0,0,.40754.07991h0a1.84257,1.84257,0,0,0,1.22119-3.31045h0A1.7659,1.7659,0,0,0,1029.68918,493.33049Z" opacity=".5" transform="translate(-152.20132 -130.08781)"/><circle cx="107.597" cy="455.286" r="6" fill="#f55f44" opacity=".5"/><circle cx="321.597" cy="6" r="6" fill="#4d8af0" opacity=".5"/><circle cx="463.796" cy="457.937" r="6" fill="#47e6b1" opacity=".5"/><circle cx="809.796" cy="607.937" r="6" fill="#f55f44" opacity=".5"/><rect width="207.972" height="302.01" x="688.162" y="277.832" fill="#6c63ff" rx="13.435" transform="translate(-227.32135 55.3448) rotate(-12.75221)"/><circle cx="525.597" cy="214" r="6" fill="#fff"/><circle cx="531.597" cy="236" r="6" fill="#fff"/><circle cx="570.597" cy="397" r="6" fill="#fff"/><circle cx="576.597" cy="419" r="6" fill="#fff"/><rect width="124.876" height="20.813" x="725.349" y="386.698" fill="#f5f5f5" transform="translate(-220.42436 53.59932) rotate(-12.75221)"/></svg>